<svg id="Capa_1" data-name="Capa 1" xmlns="http://www.w3.org/2000/svg" viewBox="0 0 611.89 344.97"><defs><style>.cls-1{fill:#2984c7;}.cls-2{fill:#1d1d1b;}.cls-3{fill:#fff;}.cls-4{fill:#fafafa;}.cls-5{fill:#d8b41f;}</style></defs><path class="cls-1" d="M16.19,159.71c36.32,20.94,72.71,42,111.65,57.79,37.31,15.11,78.13,25.27,118.6,20.41,21.34-2.55,42.21-8.81,62.59-15.46,20.56-6.71,40.81-14.33,61.22-21.47,38.95-13.64,78.86-25.49,120.5-25.13,19.43.17,38.82,2.92,57.19,9.37a126.49,126.49,0,0,1,12.42,5.1c4.18,2,8.25,4.83,12.79,5.9a22.8,22.8,0,0,0,25.32-33.1c-2.41-4.51-6.37-7.43-10.5-10.23A128.51,128.51,0,0,0,576,145.73a159.83,159.83,0,0,0-52.9-16.62c-39.3-5.46-78.75.7-116.52,11.9-41.62,12.34-81.56,29.8-123.5,41.13a345.31,345.31,0,0,1-120,10.82A342.58,342.58,0,0,1,48.62,162.57Q35.24,156.34,22.46,149c-3.47-2-6.77-.31-8.34,2.38S12.72,157.72,16.19,159.71Z"/><path class="cls-1" d="M585.48,247a128.36,128.36,0,0,0-11.92-7.16,160.14,160.14,0,0,0-52.9-16.62c-39.31-5.46-78.76.71-116.52,11.91-41.62,12.34-81.57,29.79-123.5,41.13a345.54,345.54,0,0,1-120,10.81A342.46,342.46,0,0,1,46.13,256.64Q32.77,250.42,20,243.06c-3.48-2-6.78-.32-8.34,2.37s-1.4,6.36,2.07,8.35c36.31,20.94,72.7,42,111.64,57.79C162.67,326.68,203.49,336.84,244,332c21.34-2.56,42.21-8.82,62.59-15.47,20.56-6.71,40.81-14.32,61.22-21.47,38.94-13.63,78.85-25.49,120.5-25.12,19.42.17,38.81,2.91,57.18,9.37a126.66,126.66,0,0,1,12.43,5.1c4.17,2,8.24,4.82,12.79,5.89A22.8,22.8,0,0,0,596,257.19C593.58,252.69,589.61,249.76,585.48,247Z"/><path class="cls-2" d="M145.74,321h-49a13.42,13.42,0,0,1-13.42-13.42V37.41A13.42,13.42,0,0,1,96.71,24h71.18q49.7,0,69.79,4.87t34.08,16.64a87.61,87.61,0,0,1,25.05,34q8.63,20.39,8.63,45.34,0,26.58-8.52,46.76a81.49,81.49,0,0,1-25.16,33.17,79,79,0,0,1-29.62,14q-17,4.26-54.57,4.26h-15a13.42,13.42,0,0,0-13.42,13.42v71.15A13.42,13.42,0,0,1,145.74,321Z"/><path class="cls-2" d="M346.62,307.57V37.41A13.42,13.42,0,0,1,360,24H515.17a13.42,13.42,0,0,1,13.42,13.43V75.69a13.42,13.42,0,0,1-13.42,13.42H439a13.42,13.42,0,0,0-13.42,13.42v24.68A13.42,13.42,0,0,0,439,140.64h70.33a13.42,13.42,0,0,1,13.42,13.42v36.86a13.42,13.42,0,0,1-13.42,13.42H439a13.42,13.42,0,0,0-13.42,13.42v89.81A13.42,13.42,0,0,1,412.11,321H360A13.42,13.42,0,0,1,346.62,307.57Z"/><path class="cls-3" d="M186.88,74.61l-45.79,33.27a3,3,0,0,0-1.09,3.36l17.49,53.83a3,3,0,0,0,2.85,2.08H217a3,3,0,0,0,2.86-2.08l17.49-53.83a3,3,0,0,0-1.09-3.36l-45.8-33.27A3,3,0,0,0,186.88,74.61Z"/><path class="cls-4" d="M597.23,211.73c-2.41-4.51-6.37-7.43-10.51-10.23a126.21,126.21,0,0,0-11.92-7.16,159.83,159.83,0,0,0-52.9-16.62c-39.3-5.47-78.76.7-116.52,11.9-41.62,12.34-81.56,29.8-123.5,41.13a345.31,345.31,0,0,1-120,10.82A342.7,342.7,0,0,1,47.37,211.18Q34,205,21.22,197.59c-3.47-2-6.78-.31-8.34,2.37s-1.4,6.37,2.07,8.36c36.31,20.94,72.71,42,111.64,57.79,37.32,15.11,78.14,25.27,118.61,20.41,21.34-2.56,42.21-8.81,62.59-15.46,20.56-6.71,40.81-14.33,61.22-21.47C408,236,447.87,224.1,489.51,224.46c19.43.17,38.82,2.92,57.19,9.37a126.49,126.49,0,0,1,12.42,5.1c4.17,2,8.25,4.83,12.79,5.9a22.8,22.8,0,0,0,25.32-33.1Z"/><polygon class="cls-5" points="217.11 239.14 223.82 258.17 242.86 264.89 223.82 271.61 217.11 290.64 210.39 271.61 191.35 264.89 210.39 258.17 217.11 239.14"/><polygon class="cls-5" points="308.9 193.92 322 231.05 359.13 244.15 322 257.25 308.9 294.38 295.8 257.25 258.67 244.15 295.8 231.05 308.9 193.92"/><polygon class="cls-5" points="395 190.61 401.66 209.48 420.53 216.14 401.66 222.8 395 241.68 388.34 222.8 369.46 216.14 388.34 209.48 395 190.61"/></svg>