<svg id="Capa_1" data-name="Capa 1" xmlns="http://www.w3.org/2000/svg" viewBox="0 0 877.71 664.63"><defs><style>.cls-1{font-size:149.75px;font-family:FuturaBT-Bold, Futura Md BT;font-weight:700;}.cls-1,.cls-3{fill:#1d1d1b;}.cls-2{fill:#2984c7;}.cls-4{fill:#fff;}.cls-5{fill:#fafafa;}.cls-6{fill:#d8b41f;}</style></defs><path class="cls-2" d="M14.46,203.64C67.65,234.31,121,265.19,178,288.28c54.65,22.13,114.44,37,173.72,29.9,31.25-3.74,61.82-12.91,91.67-22.65,30.11-9.83,59.77-21,89.67-31.45,57-20,115.5-37.33,176.49-36.8,28.45.25,56.86,4.27,83.76,13.73a183.43,183.43,0,0,1,18.2,7.47c6.11,2.91,12.08,7.07,18.73,8.63a33.39,33.39,0,0,0,37.08-48.47c-3.52-6.6-9.33-10.89-15.38-15a187,187,0,0,0-17.47-10.49c-24.09-12.76-50.53-20.6-77.47-24.34-57.57-8-115.36,1-170.67,17.43-61,18.08-119.47,43.64-180.89,60.25A505.59,505.59,0,0,1,229.7,252.33,501.3,501.3,0,0,1,62,207.82q-19.59-9.1-38.32-19.89c-5.08-2.93-9.92-.46-12.21,3.47S9.38,200.72,14.46,203.64Z"/><path class="cls-2" d="M848.29,331.44A187,187,0,0,0,830.82,321c-24.09-12.76-50.53-20.6-77.47-24.34-57.57-8-115.36,1-170.67,17.43-61,18.08-119.47,43.64-180.89,60.25a505.59,505.59,0,0,1-175.73,15.83A501.3,501.3,0,0,1,58.32,345.61Q38.73,336.51,20,325.72c-5.09-2.93-9.93-.46-12.22,3.47s-2,9.32,3,12.24C64,372.09,117.32,403,174.35,426.07c54.65,22.13,114.44,37,173.72,29.9,31.25-3.74,61.83-12.91,91.67-22.65,30.12-9.83,59.77-21,89.67-31.45,57-20,115.5-37.33,176.5-36.8,28.45.25,56.85,4.27,83.75,13.73a183.43,183.43,0,0,1,18.2,7.47c6.11,2.91,12.08,7.07,18.73,8.63a33.4,33.4,0,0,0,37.08-48.48C860.15,339.83,854.34,335.54,848.29,331.44Z"/><path class="cls-3" d="M204.22,439.86H132.4a19.66,19.66,0,0,1-19.66-19.66V24.5A19.66,19.66,0,0,1,132.4,4.85H236.65q72.79,0,102.22,7.13t49.92,24.36a128.39,128.39,0,0,1,36.69,49.78q12.63,29.85,12.63,66.41,0,38.92-12.48,68.49a119.32,119.32,0,0,1-36.84,48.58q-18.44,14.26-43.38,20.5t-79.94,6.24H243.53A19.66,19.66,0,0,0,223.87,316V420.2A19.66,19.66,0,0,1,204.22,439.86Z"/><path class="cls-3" d="M498.43,420.2V24.5A19.66,19.66,0,0,1,518.09,4.85H745.31A19.66,19.66,0,0,1,765,24.5V80.57a19.66,19.66,0,0,1-19.66,19.66H633.68A19.66,19.66,0,0,0,614,119.89v36.16a19.66,19.66,0,0,0,19.66,19.65h103a19.66,19.66,0,0,1,19.66,19.66v54A19.66,19.66,0,0,1,736.69,269h-103A19.66,19.66,0,0,0,614,288.67V420.2a19.66,19.66,0,0,1-19.66,19.66H518.09A19.66,19.66,0,0,1,498.43,420.2Z"/><path class="cls-4" d="M265.29,78.4l-68.72,49.92a3,3,0,0,0-1.08,3.36l26.24,80.78a3,3,0,0,0,2.86,2.07h84.94a3,3,0,0,0,2.85-2.07l26.25-80.78a3,3,0,0,0-1.09-3.36L268.82,78.4A3,3,0,0,0,265.29,78.4Z"/><path class="cls-5" d="M865.49,279.83c-3.52-6.6-9.33-10.89-15.38-15a186.87,186.87,0,0,0-17.47-10.48c-24.09-12.76-50.53-20.6-77.47-24.35-57.57-8-115.36,1-170.67,17.44-61,18.08-119.47,43.64-180.89,60.25a505.83,505.83,0,0,1-175.73,15.83A501.3,501.3,0,0,1,60.14,279q-19.59-9.11-38.32-19.89c-5.08-2.93-9.92-.46-12.21,3.47s-2,9.32,3,12.24c53.19,30.66,106.5,61.55,163.53,84.64,54.65,22.13,114.44,37,173.72,29.9,31.25-3.75,61.83-12.91,91.67-22.65,30.12-9.83,59.77-21,89.67-31.45,57-20,115.5-37.33,176.5-36.8,28.45.25,56.85,4.27,83.75,13.73a185.8,185.8,0,0,1,18.2,7.46c6.11,2.92,12.08,7.08,18.73,8.64a33.4,33.4,0,0,0,37.08-48.48Z"/><polygon class="cls-6" points="308.74 319.98 318.58 347.86 346.46 357.7 318.58 367.53 308.74 395.42 298.9 367.53 271.02 357.7 298.9 347.86 308.74 319.98"/><polygon class="cls-6" points="443.19 253.75 462.37 308.13 516.75 327.32 462.37 346.51 443.19 400.89 424 346.51 369.62 327.32 424 308.13 443.19 253.75"/><polygon class="cls-6" points="569.29 248.89 579.04 276.54 606.69 286.3 579.04 296.05 569.29 323.7 559.54 296.05 531.89 286.3 559.54 276.54 569.29 248.89"/></svg>